<?xml version="1.0" encoding="utf-8"?><!-- Generator: Adobe Illustrator 23.0.1, SVG Export Plug-In . SVG Version: 6.00 Build 0)  --><svg xmlns="http://www.w3.org/2000/svg" xmlns:xlink="http://www.w3.org/1999/xlink" viewBox="0 0 24 24" width="24px" height="24px"><g id="Filled" style="display:none;"><g style="display:inline;"><path d="M11,16.4l-4.7-4.7l1.4-1.4l3.3,3.3l9.7-9.7C20.3,3.4,19.7,3,19,3H5C3.9,3,3,3.9,3,5v14c0,1.1,0.9,2,2,2h14    c1.1,0,2-0.9,2-2V6.4L11,16.4z"/></g></g><g id="Outlined" style="display:none;"><polyline id="Done__x2014__Displayed_on_the_left_side_of_a_contextual_action_bar__x28_CAB_x29__to_allow_the_user_to_dismiss_it._3_" style="display:inline;fill:none;stroke:#000000;stroke-width:2;stroke-miterlimit:10;" points="   22,4 11,15 7,11  "/><path style="display:inline;" d="M19,11.2l0,7.8H5V5h11.8l2-2H5C3.9,3,3,3.9,3,5v14c0,1.1,0.9,2,2,2h14c1.1,0,2-0.9,2-2V9.2   L19,11.2z"/></g><g id="Rounded" style="display:none;"><path style="display:inline;" d="M11.7,15.7C11.5,15.9,11.3,16,11,16s-0.5-0.1-0.7-0.3l-4-4c-0.4-0.4-0.4-1,0-1.4s1-0.4,1.4,0   l3.3,3.3l9.7-9.7C20.3,3.4,19.7,3,19,3H5C3.9,3,3,3.9,3,5v14c0,1.1,0.9,2,2,2h14c1.1,0,2-0.9,2-2V6.4L11.7,15.7z"/></g><g id="Two-Tone"><polygon points="11,16.4 6.3,11.7 7.7,10.3 11,13.6 21.3,3.3 22.7,4.7  "/><path d="M19,11.2l0,7.8H5V5h11.8l2-2H5C3.9,3,3,3.9,3,5v14c0,1.1,0.9,2,2,2h14c1.1,0,2-0.9,2-2V9.2L19,11.2z"/><g style="opacity:0.13;"><path d="M19,3H6C4.9,3,4,3.9,4,5v15h17V5C21,3.9,20.1,3,19,3z"/></g></g><g id="Sharp_3_" style="display:none;"><polygon style="display:inline;" points="11,16.4 6.3,11.7 7.7,10.3 11,13.6 21,3.6 21,3 3,3 3,21 21,21 21,13 21,6.4  "/></g></svg>